<svg xmlns="http://www.w3.org/2000/svg" version="1.1" xmlns:xlink="http://www.w3.org/1999/xlink" xmlns:svgjs="http://svgjs.com/svgjs" overflow="visible" viewBox="0 0 568.8 58.06"><g class="signage-logo" opacity="1"><defs id="SvgjsDefs1002"/><g id="SvgjsG1008" transform="scale(1.2206082558249292)" opacity="1"><g id="SvgjsG1009" class="fl0VJd5P5" transform="translate(-5.822054696304164, -12.021867828190839) scale(0.7160563780587835)" light-content="false" non-strokable="false" fill="#e3dbca"><path d="M46.359 56.902l-10.895-.023a1.27 1.27 0 1 1 .008-2.54l10.895.024a1.27 1.27 0 1 1-.008 2.539zm6.766-11.91l-17.656-.043c-.7 0-1.266.566-1.27 1.266 0 .699.567 1.27 1.266 1.273l17.656.043c.699 0 1.265-.566 1.27-1.266 0-.699-.567-1.27-1.266-1.273zm-17.652-9.434c-.704 0-1.27.567-1.274 1.266 0 .7.567 1.27 1.266 1.273l17.477.04c.699 0 1.265-.567 1.27-1.266 0-.7-.567-1.27-1.266-1.274zm16.312-6.828c.699 0 1.265-.566 1.27-1.265 0-.7-.567-1.27-1.267-1.27l-17.702-.027a1.268 1.268 0 0 0-.004 2.535zm39.773-8.09c.664-.773.183-1.984-.829-2.09-2.68-.28-5.183-.093-7.437.551-6.074 1.735-14.191 12.406-20.578 21.176.043-5.656-.242-11.062-1.797-14.602-1.016-2.312-2.344-4.91-4.488-6.652-1.649-1.34-4.324-2.219-6.82-2.234H16.646c-1.367 0-2.593.234-3.609.719-3.047 1.457-4.879 4.296-4.906 7.597-.024 3.082 1.504 6.133 4.183 8.371 1.18.985 2.45 1.856 3.774 2.586.187.106.398.16.613.16h10.461c.156 4.637-.101 9.375-.144 13.766l-.192 9.407c-.047 4.937.113 11.098 1.797 14.934 1.016 2.312 2.344 4.91 4.488 6.652 1.665 1.355 4.38 2.234 6.887 2.234H61.49c1.324-.008 2.492-.25 3.473-.718 3.047-1.457 4.879-4.297 4.906-7.598.023-3.082-1.504-6.133-4.184-8.371a24.03 24.03 0 0 0-3.175-2.242L62.515 50c0-.168 0-.348.003-.536 4.727-.285 7.672-.59 11.832-6.09.657-.867-.02-2.113-1.105-2.03-.25.019-.504.023-.762.019 4.375-2.465 4.867-2.938 9.305-7.82.762-.836.117-2.176-1-2.121-.43.019-.856.019-1.277-.004 5.257-2.754 6.07-3.723 9.78-8.118.657-.77 1.395-1.644 2.266-2.66zM27.035 33.685h-9.993a21.738 21.738 0 0 1-3.093-2.157c-2.098-1.75-3.29-4.082-3.274-6.402.02-2.344 1.281-4.285 3.461-5.328 2.195-1.05 5.988-.223 7.73 1.195 1.727 1.403 2.872 3.672 3.766 5.707.778 1.766 1.192 4.25 1.403 6.985zm18.879 41.19c.015-2.32-1.176-4.656-3.274-6.402a21.401 21.401 0 0 0-3.379-2.316c-1.14-.633-.687-2.38.614-2.38h20.102V49.63c-.332.027-.672.055-1.02.086l-5.715 7.777a1.268 1.268 0 1 1-2.043-1.504l5.875-7.996c.04-.09.09-.18.153-.262.808-1.035 1.777-2.359 2.879-3.875.156-6.347.156-13.344-1.52-17.164-.894-2.035-2.039-4.3-3.766-5.707-1.21-.984-3.312-1.652-5.234-1.664l-25.762.004c1.938 1.735 3.176 4.168 4.133 6.352 2.101 4.785 1.875 13.14 1.691 19.859-.043 1.633-.086 3.172-.086 4.469v.027l-.191 9.406c-.043 4.305.074 10.445 1.582 13.875.894 2.035 2.039 4.301 3.766 5.707 1.683 1.367 5.468 2.274 7.734 1.192 2.18-1.051 3.441-2.993 3.46-5.336zm18.152-6.402c2.097 1.75 3.289 4.082 3.273 6.403-.02 2.343-1.281 4.285-3.46 5.328-.634.3-1.462.464-2.388.468l-15.39.004c1.488-1.527 2.331-3.547 2.347-5.78.024-3.25-1.617-6.29-4.437-8.579h16.96a21.642 21.642 0 0 1 3.094 2.156zm23.879-47.504c-4.715 5.57-4.473 5.64-12.82 9.844-1 .504-.899 1.969.156 2.332.922.316 1.863.543 2.812.68-2.875 3.097-3.566 3.488-7.64 5.77-.621.347-1.317.737-2.11 1.187-.93.527-.828 1.902.168 2.285.762.293 1.512.512 2.254.648-3.027 3.211-5.5 3.028-9.82 3.305 5.875-7.977 16.62-23.641 23.043-25.477 1.227-.352 2.555-.543 3.957-.574z" fill-rule="evenodd"/></g><g id="SvgjsG1010" class="text" transform="translate(270.23656644512084, 44.05068109010253) scale(1)" light-content="false" fill="#e3dbca"><path d="M-197.45 -0.11L-197.45 0L-191.73 0C-191.79 -0.31 -191.84 -0.66 -191.9 -1.06C-191.94 -1.4 -191.98 -1.82 -192.01 -2.32C-192.05 -2.81 -192.07 -3.38 -192.07 -4.03C-192.07 -4.55 -192.02 -5.34 -191.93 -6.42C-191.83 -7.5 -191.7 -8.74 -191.54 -10.15C-191.38 -11.56 -191.19 -13.08 -190.98 -14.72C-190.78 -16.35 -190.57 -17.98 -190.36 -19.62C-189.86 -23.45 -189.28 -27.63 -188.61 -32.15L-171.62 -0.34L-169.65 -0.11L-152.77 -31.86L-149.14 -4.46C-149.1 -4.16 -149.08 -3.88 -149.06 -3.62C-149.04 -3.36 -149.03 -3.11 -149.03 -2.86C-149.03 -2.19 -149.07 -1.62 -149.16 -1.14C-149.24 -0.67 -149.33 -0.32 -149.43 -0.11L-149.43 0L-142.22 0L-142.22 -0.11C-142.35 -0.34 -142.49 -0.63 -142.64 -0.99C-142.78 -1.34 -142.93 -1.79 -143.08 -2.33C-143.23 -2.87 -143.38 -3.53 -143.54 -4.29C-143.69 -5.05 -143.83 -5.97 -143.97 -7.04L-148.66 -41.01L-151.37 -41.01L-169.22 -7.38L-187.21 -41.01L-190.84 -41.01C-190.9 -40.48 -190.99 -39.68 -191.11 -38.63C-191.24 -37.57 -191.39 -36.32 -191.59 -34.89C-191.78 -33.46 -191.99 -31.89 -192.23 -30.16C-192.47 -28.43 -192.72 -26.64 -192.97 -24.78C-193.23 -22.92 -193.5 -21.04 -193.77 -19.12C-194.05 -17.2 -194.33 -15.33 -194.6 -13.5C-194.88 -11.67 -195.15 -9.92 -195.4 -8.25C-195.66 -6.58 -195.89 -5.08 -196.1 -3.75C-196.26 -2.83 -196.47 -2.07 -196.73 -1.47C-197 -0.87 -197.24 -0.42 -197.45 -0.11Z M-106.73 -19.11L-106.73 -10.55C-106.73 -8.86 -106.99 -7.46 -107.49 -6.36C-108 -5.27 -108.67 -4.39 -109.52 -3.75C-110.37 -3.1 -111.33 -2.65 -112.41 -2.39C-113.49 -2.13 -114.6 -2 -115.74 -2C-116.87 -2 -117.96 -2.13 -119.03 -2.39C-120.1 -2.65 -121.05 -3.1 -121.89 -3.75C-122.73 -4.39 -123.41 -5.27 -123.92 -6.36C-124.44 -7.46 -124.69 -8.86 -124.69 -10.55L-124.69 -19.11C-124.69 -20.8 -124.67 -22.28 -124.64 -23.54C-124.6 -24.8 -124.55 -25.88 -124.48 -26.8C-124.41 -27.71 -124.33 -28.48 -124.24 -29.1C-124.14 -29.72 -124.03 -30.23 -123.89 -30.63L-123.89 -30.75L-130.5 -30.75L-130.5 -30.63C-130.37 -30.23 -130.25 -29.72 -130.16 -29.09C-130.06 -28.46 -129.98 -27.68 -129.9 -26.76C-129.82 -25.83 -129.77 -24.73 -129.73 -23.47C-129.69 -22.2 -129.67 -20.71 -129.67 -18.99L-129.67 -10.55C-129.67 -8.51 -129.33 -6.78 -128.66 -5.35C-127.98 -3.92 -127.05 -2.76 -125.88 -1.86C-124.71 -0.96 -123.32 -0.31 -121.72 0.1C-120.12 0.51 -118.38 0.72 -116.51 0.72C-114.66 0.72 -112.96 0.5 -111.41 0.07C-109.85 -0.36 -108.52 -1.03 -107.39 -1.96C-106.27 -2.88 -105.38 -4.07 -104.74 -5.52C-104.11 -6.97 -103.79 -8.72 -103.79 -10.78L-103.79 -18.99C-103.79 -20.71 -103.78 -22.2 -103.76 -23.47C-103.74 -24.73 -103.7 -25.83 -103.64 -26.76C-103.59 -27.68 -103.52 -28.46 -103.44 -29.09C-103.37 -29.72 -103.27 -30.23 -103.16 -30.63L-103.16 -30.75L-107.36 -30.75L-107.36 -30.63C-107.25 -30.23 -107.15 -29.72 -107.08 -29.1C-107 -28.48 -106.93 -27.71 -106.88 -26.8C-106.82 -25.88 -106.78 -24.8 -106.76 -23.54C-106.74 -22.28 -106.73 -20.8 -106.73 -19.11Z M-75.94 -24.77L-75.79 -29.63C-76.06 -29.73 -76.4 -29.85 -76.82 -30.02C-77.24 -30.18 -77.73 -30.34 -78.29 -30.5C-78.86 -30.66 -79.49 -30.8 -80.18 -30.92C-80.88 -31.03 -81.63 -31.09 -82.43 -31.09C-83.51 -31.09 -84.56 -30.92 -85.57 -30.59C-86.58 -30.25 -87.48 -29.78 -88.26 -29.16C-89.04 -28.54 -89.67 -27.78 -90.15 -26.88C-90.63 -25.99 -90.86 -24.98 -90.86 -23.85C-90.86 -22.79 -90.69 -21.81 -90.35 -20.92C-90.01 -20.03 -89.55 -19.2 -88.98 -18.42C-88.41 -17.64 -87.76 -16.91 -87.05 -16.23C-86.33 -15.55 -85.59 -14.89 -84.83 -14.24C-84.07 -13.59 -83.33 -12.96 -82.61 -12.33C-81.9 -11.7 -81.25 -11.04 -80.68 -10.37C-80.11 -9.69 -79.65 -8.99 -79.31 -8.25C-78.97 -7.52 -78.8 -6.72 -78.8 -5.86C-78.8 -5.14 -78.92 -4.49 -79.17 -3.9C-79.41 -3.32 -79.75 -2.83 -80.18 -2.43C-80.61 -2.03 -81.12 -1.72 -81.71 -1.5C-82.3 -1.28 -82.93 -1.17 -83.6 -1.17C-84.55 -1.17 -85.4 -1.34 -86.13 -1.67C-86.87 -2.01 -87.5 -2.45 -88.05 -2.99C-88.59 -3.53 -89.05 -4.14 -89.42 -4.8C-89.79 -5.47 -90.07 -6.14 -90.26 -6.81L-90.86 -6.81L-91.38 -1.4C-91.02 -1.17 -90.56 -0.93 -90.02 -0.67C-89.48 -0.41 -88.86 -0.18 -88.16 0.04C-87.47 0.26 -86.7 0.45 -85.87 0.6C-85.04 0.75 -84.17 0.83 -83.26 0.83C-81.6 0.83 -80.19 0.58 -79.02 0.07C-77.86 -0.43 -76.91 -1.08 -76.16 -1.86C-75.42 -2.64 -74.88 -3.52 -74.55 -4.49C-74.21 -5.46 -74.05 -6.41 -74.05 -7.32C-74.05 -8.56 -74.35 -9.72 -74.95 -10.81C-75.55 -11.9 -76.3 -12.93 -77.19 -13.9C-78.09 -14.87 -79.06 -15.81 -80.11 -16.7C-81.16 -17.6 -82.13 -18.49 -83.03 -19.38C-83.92 -20.26 -84.67 -21.16 -85.27 -22.05C-85.87 -22.95 -86.17 -23.89 -86.17 -24.88C-86.17 -25.49 -86.08 -26.06 -85.89 -26.58C-85.7 -27.11 -85.42 -27.56 -85.06 -27.94C-84.7 -28.32 -84.25 -28.62 -83.73 -28.84C-83.2 -29.06 -82.61 -29.17 -81.94 -29.17C-81.06 -29.17 -80.31 -29.01 -79.68 -28.67C-79.05 -28.34 -78.52 -27.93 -78.09 -27.46C-77.67 -26.98 -77.32 -26.49 -77.06 -26C-76.81 -25.5 -76.62 -25.09 -76.51 -24.77Z M-62.21 -30.75L-62.21 -30.75L-62.21 -30.63C-62.08 -30.23 -61.96 -29.72 -61.86 -29.09C-61.75 -28.46 -61.66 -27.68 -61.6 -26.76C-61.53 -25.83 -61.48 -24.73 -61.44 -23.47C-61.4 -22.2 -61.38 -20.71 -61.38 -18.99L-61.38 -11.78C-61.38 -10.07 -61.4 -8.57 -61.44 -7.29C-61.48 -6.02 -61.53 -4.91 -61.6 -3.99C-61.66 -3.07 -61.75 -2.29 -61.86 -1.66C-61.96 -1.03 -62.08 -0.51 -62.21 -0.11L-62.21 0L-51.37 0C-51.14 0 -50.72 0 -50.11 0.01C-49.5 0.02 -48.85 0.03 -48.16 0.04C-47.46 0.05 -46.79 0.07 -46.15 0.1C-45.51 0.13 -45.05 0.15 -44.77 0.17L-44.11 -3.58C-45.16 -3.31 -46.33 -3.07 -47.63 -2.86C-48.73 -2.69 -50.03 -2.53 -51.52 -2.39C-53 -2.25 -54.63 -2.17 -56.41 -2.17L-56.41 -15.16C-55.4 -15.16 -54.34 -15.13 -53.23 -15.06C-52.13 -14.99 -51.12 -14.91 -50.2 -14.82C-49.13 -14.72 -48.07 -14.61 -47.03 -14.47L-46.34 -17.88C-47.12 -17.74 -48.03 -17.64 -49.06 -17.56C-49.93 -17.47 -50.99 -17.39 -52.23 -17.33C-53.47 -17.27 -54.86 -17.24 -56.41 -17.22L-56.41 -28.52C-55.85 -28.55 -55.31 -28.59 -54.78 -28.63C-54.32 -28.67 -53.84 -28.7 -53.35 -28.73C-52.85 -28.76 -52.41 -28.77 -52.03 -28.77C-50.96 -28.77 -50.02 -28.73 -49.21 -28.64C-48.4 -28.56 -47.71 -28.47 -47.14 -28.37C-46.49 -28.26 -45.91 -28.13 -45.4 -28L-44.28 -31.09C-44.66 -31.01 -45.46 -30.96 -46.67 -30.92C-47.88 -30.88 -49.32 -30.85 -51 -30.82C-52.68 -30.79 -54.5 -30.77 -56.46 -30.76C-58.43 -30.75 -60.34 -30.75 -62.21 -30.75Z M-8.33 -19.11L-8.33 -10.55C-8.33 -8.86 -8.59 -7.46 -9.09 -6.36C-9.6 -5.27 -10.27 -4.39 -11.12 -3.75C-11.97 -3.1 -12.93 -2.65 -14.01 -2.39C-15.09 -2.13 -16.2 -2 -17.34 -2C-18.47 -2 -19.56 -2.13 -20.63 -2.39C-21.7 -2.65 -22.65 -3.1 -23.49 -3.75C-24.33 -4.39 -25.01 -5.27 -25.52 -6.36C-26.04 -7.46 -26.3 -8.86 -26.3 -10.55L-26.3 -19.11C-26.3 -20.8 -26.28 -22.28 -26.24 -23.54C-26.2 -24.8 -26.15 -25.88 -26.08 -26.8C-26.01 -27.71 -25.93 -28.48 -25.84 -29.1C-25.74 -29.72 -25.63 -30.23 -25.49 -30.63L-25.49 -30.75L-32.1 -30.75L-32.1 -30.63C-31.97 -30.23 -31.85 -29.72 -31.76 -29.09C-31.66 -28.46 -31.58 -27.68 -31.5 -26.76C-31.42 -25.83 -31.37 -24.73 -31.33 -23.47C-31.29 -22.2 -31.27 -20.71 -31.27 -18.99L-31.27 -10.55C-31.27 -8.51 -30.93 -6.78 -30.26 -5.35C-29.58 -3.92 -28.66 -2.76 -27.48 -1.86C-26.31 -0.96 -24.92 -0.31 -23.32 0.1C-21.72 0.51 -19.98 0.72 -18.12 0.72C-16.27 0.72 -14.56 0.5 -13.01 0.07C-11.46 -0.36 -10.12 -1.03 -8.99 -1.96C-7.87 -2.88 -6.99 -4.07 -6.35 -5.52C-5.71 -6.97 -5.39 -8.72 -5.39 -10.78L-5.39 -18.99C-5.39 -20.71 -5.38 -22.2 -5.36 -23.47C-5.34 -24.73 -5.3 -25.83 -5.25 -26.76C-5.19 -27.68 -5.12 -28.46 -5.05 -29.09C-4.97 -29.72 -4.87 -30.23 -4.76 -30.63L-4.76 -30.75L-8.96 -30.75L-8.96 -30.63C-8.85 -30.23 -8.75 -29.72 -8.68 -29.1C-8.6 -28.48 -8.53 -27.71 -8.48 -26.8C-8.42 -25.88 -8.38 -24.8 -8.36 -23.54C-8.34 -22.28 -8.33 -20.8 -8.33 -19.11Z M6.53 -0.11L6.53 0L11.45 0C11.41 -0.23 11.38 -0.5 11.34 -0.8C11.3 -1.07 11.27 -1.38 11.25 -1.73C11.23 -2.08 11.22 -2.5 11.22 -2.97C11.22 -3.36 11.26 -3.94 11.34 -4.72C11.41 -5.5 11.51 -6.4 11.62 -7.42C11.74 -8.44 11.87 -9.53 12.02 -10.7L12.48 -14.19C12.84 -16.91 13.26 -19.88 13.74 -23.08L26.52 -0.34L28.56 -0.06L41.57 -22.91L44.03 -5.38C44.12 -4.79 44.19 -4.19 44.24 -3.58C44.29 -2.96 44.31 -2.5 44.31 -2.17C44.31 -1.68 44.27 -1.25 44.19 -0.89C44.1 -0.52 44.03 -0.27 43.97 -0.11L43.97 0L51.01 0L51.01 -0.11C50.89 -0.31 50.76 -0.56 50.61 -0.89C50.46 -1.21 50.3 -1.64 50.15 -2.16C50 -2.68 49.84 -3.33 49.68 -4.09C49.51 -4.85 49.35 -5.78 49.18 -6.86L45.74 -30.75L42.97 -30.75L28.98 -6.32L15.34 -30.75L11.94 -30.75C11.88 -30.21 11.78 -29.36 11.62 -28.2C11.47 -27.04 11.28 -25.68 11.05 -24.14L10.31 -19.12C10.04 -17.32 9.77 -15.51 9.49 -13.7C9.22 -11.89 8.94 -10.13 8.66 -8.42C8.39 -6.72 8.13 -5.2 7.91 -3.86C7.75 -3.04 7.55 -2.28 7.29 -1.57C7.03 -0.87 6.78 -0.38 6.53 -0.11Z M69.33 -18.16L69.33 -38.78C69.66 -38.9 70.07 -39 70.56 -39.1C70.98 -39.17 71.5 -39.25 72.11 -39.31C72.72 -39.38 73.43 -39.41 74.25 -39.41C75.55 -39.41 76.68 -39.17 77.66 -38.68C78.63 -38.2 79.43 -37.51 80.07 -36.62C80.71 -35.74 81.19 -34.66 81.52 -33.39C81.84 -32.12 82 -30.72 82 -29.17C82 -26.94 81.69 -25.05 81.07 -23.51C80.46 -21.97 79.59 -20.74 78.47 -19.83C77.36 -18.93 76.02 -18.34 74.47 -18.06C72.91 -17.78 71.2 -17.82 69.33 -18.16ZM63.3 -41.01L63.3 -40.9C63.41 -40.5 63.52 -40 63.63 -39.41C63.73 -38.82 63.82 -38.08 63.9 -37.2C63.98 -36.31 64.03 -35.26 64.07 -34.05C64.11 -32.84 64.13 -31.42 64.13 -29.8L64.13 -11.18C64.13 -9.56 64.11 -8.15 64.07 -6.94C64.03 -5.72 63.98 -4.68 63.9 -3.8C63.82 -2.93 63.73 -2.19 63.63 -1.6C63.52 -1.01 63.41 -0.51 63.3 -0.11L63.3 0L70.16 0L70.16 -0.11C70.05 -0.51 69.94 -1.01 69.83 -1.6C69.73 -2.19 69.64 -2.93 69.58 -3.8C69.51 -4.68 69.45 -5.72 69.41 -6.94C69.36 -8.15 69.33 -9.56 69.33 -11.18L69.33 -15.93C71.76 -15.57 74.07 -15.59 76.28 -16C78.5 -16.41 80.45 -17.19 82.15 -18.33C83.84 -19.48 85.2 -20.97 86.21 -22.82C87.22 -24.67 87.72 -26.87 87.72 -29.4C87.72 -31.29 87.41 -32.97 86.77 -34.45C86.13 -35.93 85.24 -37.18 84.09 -38.21C82.95 -39.24 81.6 -40.02 80.05 -40.56C78.49 -41.09 76.8 -41.36 74.97 -41.36C73 -41.36 71.39 -41.27 70.12 -41.09C68.85 -40.9 67.85 -40.81 67.1 -40.81C66.63 -40.81 66.16 -40.82 65.72 -40.83C65.27 -40.84 64.86 -40.86 64.5 -40.9C64.08 -40.94 63.68 -40.98 63.3 -41.01Z M115.2 -9.67L116.32 -7.38C116.49 -7 116.72 -6.52 116.99 -5.95C117.27 -5.38 117.54 -4.78 117.79 -4.16C118.05 -3.54 118.27 -2.94 118.45 -2.35C118.63 -1.75 118.72 -1.25 118.72 -0.83L118.72 -0.41C118.72 -0.29 118.7 -0.15 118.66 0L125.99 0L125.99 -0.11C125.89 -0.19 125.7 -0.44 125.41 -0.87C125.13 -1.3 124.79 -1.84 124.41 -2.5C124.03 -3.16 123.62 -3.91 123.17 -4.75C122.72 -5.59 122.28 -6.46 121.84 -7.38L110.4 -31.46L108.25 -31.46L96.59 -7.38C96.17 -6.5 95.74 -5.65 95.31 -4.83C94.88 -4.01 94.48 -3.28 94.11 -2.63C93.74 -1.98 93.41 -1.43 93.12 -0.99C92.84 -0.54 92.63 -0.25 92.5 -0.11L92.5 0L97.53 0L97.53 -0.11C97.49 -0.17 97.46 -0.25 97.44 -0.36C97.42 -0.46 97.41 -0.62 97.41 -0.83C97.41 -1.15 97.46 -1.5 97.56 -1.87C97.65 -2.25 97.81 -2.69 98.02 -3.2C98.22 -3.72 98.49 -4.31 98.82 -4.99C99.14 -5.67 99.53 -6.46 99.99 -7.38L101.05 -9.61C101.45 -9.61 102.01 -9.61 102.73 -9.62C103.46 -9.63 104.26 -9.64 105.14 -9.65C106.01 -9.66 106.94 -9.67 107.91 -9.67L110.74 -9.67L113.27 -9.67ZM102.16 -11.9L108.25 -24.6L114.17 -11.96C113.49 -11.96 112.72 -11.95 111.86 -11.94C111 -11.93 110.11 -11.93 109.2 -11.93C108.28 -11.93 107.37 -11.92 106.47 -11.91C105.56 -11.9 104.71 -11.9 103.91 -11.9Z M141.6 -28.63L141.6 -11.78C141.6 -10.07 141.58 -8.57 141.54 -7.29C141.5 -6.02 141.44 -4.91 141.37 -3.99C141.29 -3.07 141.21 -2.29 141.11 -1.66C141.02 -1.03 140.9 -0.51 140.77 -0.11L140.77 0L147.37 0L147.37 -0.11C147.24 -0.51 147.13 -1.03 147.03 -1.66C146.94 -2.29 146.85 -3.07 146.79 -3.99C146.72 -4.91 146.67 -6.02 146.63 -7.29C146.59 -8.57 146.57 -10.07 146.57 -11.78L146.57 -28.63C148.35 -28.63 149.94 -28.55 151.36 -28.4C152.78 -28.25 154 -28.09 155.01 -27.91C156.19 -27.7 157.24 -27.48 158.16 -27.23L157.58 -30.92C157.3 -30.88 156.83 -30.85 156.18 -30.83C155.54 -30.81 154.86 -30.8 154.15 -30.79C153.45 -30.78 152.78 -30.77 152.16 -30.76C151.55 -30.75 151.12 -30.75 150.89 -30.75L137.36 -30.75C137.12 -30.75 136.67 -30.75 136.03 -30.76C135.4 -30.77 134.72 -30.78 134 -30.79C133.29 -30.8 132.61 -30.81 131.96 -30.83C131.31 -30.85 130.84 -30.88 130.56 -30.92L129.99 -27.23C130.94 -27.48 132.01 -27.7 133.19 -27.91C134.22 -28.09 135.44 -28.25 136.86 -28.4C138.28 -28.55 139.86 -28.63 141.6 -28.63Z M189.96 -14.7L189.96 -11.78C189.96 -10.07 189.94 -8.57 189.9 -7.29C189.86 -6.02 189.81 -4.91 189.74 -3.99C189.67 -3.07 189.59 -2.29 189.5 -1.66C189.4 -1.03 189.29 -0.51 189.15 -0.11L189.15 0L195.76 0L195.76 -0.11C195.63 -0.51 195.51 -1.03 195.4 -1.66C195.3 -2.29 195.21 -3.07 195.15 -3.99C195.08 -4.91 195.03 -6.02 194.99 -7.29C194.95 -8.57 194.93 -10.07 194.93 -11.78L194.93 -18.99C194.93 -20.71 194.95 -22.2 194.99 -23.47C195.03 -24.73 195.08 -25.83 195.15 -26.76C195.21 -27.68 195.3 -28.46 195.4 -29.09C195.51 -29.72 195.63 -30.23 195.76 -30.63L195.76 -30.75L189.15 -30.75L189.15 -30.63C189.29 -30.23 189.4 -29.72 189.5 -29.09C189.59 -28.46 189.67 -27.68 189.74 -26.76C189.81 -25.83 189.86 -24.73 189.9 -23.47C189.94 -22.2 189.96 -20.71 189.96 -18.99L189.96 -17.22C189.29 -17.18 188.48 -17.15 187.52 -17.13C186.57 -17.11 185.55 -17.1 184.46 -17.09C183.38 -17.08 182.25 -17.07 181.09 -17.06C179.93 -17.05 178.82 -17.05 177.77 -17.05L173.57 -17.05L173.57 -18.99C173.57 -20.71 173.59 -22.2 173.62 -23.47C173.66 -24.73 173.71 -25.83 173.78 -26.76C173.85 -27.68 173.93 -28.46 174.02 -29.09C174.12 -29.72 174.23 -30.23 174.37 -30.63L174.37 -30.75L167.76 -30.75L167.76 -30.63C167.89 -30.23 168.01 -29.72 168.12 -29.09C168.22 -28.46 168.31 -27.68 168.38 -26.76C168.44 -25.83 168.5 -24.73 168.53 -23.47C168.57 -22.2 168.59 -20.71 168.59 -18.99L168.59 -11.78C168.59 -10.07 168.57 -8.57 168.53 -7.29C168.5 -6.02 168.44 -4.91 168.38 -3.99C168.31 -3.07 168.22 -2.29 168.12 -1.66C168.01 -1.03 167.89 -0.51 167.76 -0.11L167.76 0L174.37 0L174.37 -0.11C174.23 -0.51 174.12 -1.03 174.02 -1.66C173.93 -2.29 173.85 -3.07 173.78 -3.99C173.71 -4.91 173.66 -6.02 173.62 -7.29C173.59 -8.57 173.57 -10.07 173.57 -11.78L173.57 -14.7C174.18 -14.74 174.91 -14.77 175.75 -14.79C176.6 -14.81 177.51 -14.82 178.49 -14.82C179.52 -14.82 180.58 -14.81 181.69 -14.8C182.8 -14.79 183.86 -14.78 184.89 -14.76C185.92 -14.74 186.88 -14.72 187.75 -14.72C188.63 -14.71 189.36 -14.7 189.96 -14.7Z"/></g></g></g></svg>